<svg id="animation-character--one" class="animated-svg--character" xmlns="http://www.w3.org/2000/svg" width="260" height="270" viewBox="0 0 208.13 216.51">
	<defs>
		<style type="text/css"><![CDATA[
#animation-character--one #head, #animation-character--one #trouser_leg, #animation-character--one #leg-obj {
  transform-origin: top;
  transform-box: fill-box;
  animation-timing-function: ease-in-out;
  animation-duration: 4s;
  animation-iteration-count: infinite;
}
#animation-character--one #leg-obj {
  animation-name: leg-dangle;
}
#animation-character--one #trouser_leg {
  animation-name: leg-dangle--tl;
  animation-delay: 0.1s;
}
#animation-character--one #head {
  animation-name: head-nod;
  transform-origin: bottom;
  animation-delay: 0.3s;
  animation-duration: 8s;
}

@keyframes leg-dangle {
  0% {
    transform: rotate(0deg);
  }
  50% {
    transform: rotate(30deg);
  }
  100% {
    transform: rotate(0deg);
  }
}
@keyframes leg-dangle--tl {
  0% {
    transform: rotate(0deg);
  }
  50% {
    transform: rotate(23deg);
  }
  100% {
    transform: rotate(0deg);
  }
}
@keyframes head-nod {
  0% {
    transform: rotate(0deg);
  }
  25%, 35% {
    transform: rotate(10deg);
  }
  55% {
    transform: rotate(15deg);
  }
  75% {
    transform: rotate(7deg);
  }
  100% {
    transform: rotate(0deg);
  }
}

/*# sourceMappingURL=tmp-animation-character--one.css.map */

		]]></style>
	</defs>
	<path d="M26.66,136.08h74.57L111,216H0Z" transform="translate(0 -0.13)" style="fill: #d5d2db;fill-rule: evenodd"/>
	<path d="M26.92,136.08H50.08L63.94,216H0Z" transform="translate(0 -0.13)" style="fill: #ada7b7;fill-rule: evenodd"/>
	<g id="head" class="animated">
		<path id="face" d="M88.36,39.06c4.06,2.44,8,3.63,9.93,3.14,4.7-1.2,5.13-18.35,1.49-25.11s-22.33-9.7-23.27,3.69C76.18,25.43,78.14,29.57,81,33l-5.18,24.1H90.91Z" transform="translate(0 -0.13)" style="fill: #f8c99e;fill-rule: evenodd"/>
		<path id="hair" d="M69.86,14.71a4.62,4.62,0,0,1-1-1.77,20.22,20.22,0,0,1-.61-2,4.46,4.46,0,0,1,.67-4A4.61,4.61,0,0,1,72,5.59a5.45,5.45,0,0,1,2.16.27c.69.23,1.29.68,2,1a8.66,8.66,0,0,1,1-4.29A4.35,4.35,0,0,1,80.34.45a6.31,6.31,0,0,1,3.88.79,9.68,9.68,0,0,1,.88.52,2.45,2.45,0,0,0,.77.43c.32.07.47-.11.67-.34a4.9,4.9,0,0,1,.8-.71A4.62,4.62,0,0,1,91.7.39a4,4,0,0,1,1.78,1.28c.41.54.7,1.38,1.26,1.75.24.16.4,0,.62-.2s.64-.49,1-.72a4.44,4.44,0,0,1,1.49-.67c.79-.19,1.87-.14,2.1.88a4.31,4.31,0,0,1,0,1.19l-.12,1.6a11.93,11.93,0,0,1-.16,1.2,1.77,1.77,0,0,0-.08.82c.12.26.64.11.87.12a3.41,3.41,0,0,1,1.29.29,1.39,1.39,0,0,1,.79.72,1.31,1.31,0,0,1,0,.68,2.05,2.05,0,0,0,0,.7c.59-.29,2.65-.94,2.91.13a1.64,1.64,0,0,1-.26,1.05,8,8,0,0,1-1,1.46,12.74,12.74,0,0,1-2.55,2.48,1.68,1.68,0,0,1,.43,2.81,2,2,0,0,1-1.52.44,3.7,3.7,0,0,0-.63,0,1.39,1.39,0,0,1-.29.1,8.37,8.37,0,0,1-2.33-.3,7.73,7.73,0,0,1-3.57-1.86,1.07,1.07,0,0,0-.83-.38c-.3,0-.6.08-.91.09a6.43,6.43,0,0,1-2.29-.64A8.61,8.61,0,0,1,89,18.41c-.33.75-1,.86-1.74.92-2.23.21-4.46,0-6.69,0,2.16.49,4.39.69,6.53,1.27,1,.25.23.91-.19,1.36a8,8,0,0,0-1.54,2.63,4.66,4.66,0,0,0-4.57-1.86,3.27,3.27,0,0,0-1.94,4.72,6,6,0,0,0,2.92,1.87c-.8.82-1,2-1.47,3.07a2.17,2.17,0,0,1-1.09,1.26,1.19,1.19,0,0,0-.58.23c-.19.2-.24.42-.48.59a2.71,2.71,0,0,1-3.35-.26,2.19,2.19,0,0,1,.07-2.87c-1-.43-2.92-1-2.51-2.6-2.24-.15-7.69-3.79-4.68-6.45C66,21.33,64.52,19.05,65.58,17a5.12,5.12,0,0,1,4.28-2.33" transform="translate(0 -0.13)" style="fill: #191847;fill-rule: evenodd"/>
	</g>
	<path d="M91.56,193.79c4.48-6.53,20.8-28.48,29.68-37.56,2.55-2.61,5.05-5.12,7.4-7.45,7-6.94,21,4.72,14,11-17.41,15.74-42.81,37-44.93,38.88C94.69,201.36,88.74,197.89,91.56,193.79Z" transform="translate(0 -0.13)" style="fill: #dcc7b3;fill-rule: evenodd"/>
	<path d="M95,191.75a2,2,0,0,0-2.94-.38A13.13,13.13,0,0,0,89.59,194a39.63,39.63,0,0,0-2,4.56l30.65,17.65s3.48-3.26,1.08-5-3.94-3-3.94-3L105,193.85a1,1,0,0,0-1.42-.2l-1.89,1.45A14.2,14.2,0,0,1,97.2,194,9.45,9.45,0,0,1,95,191.75Z" transform="translate(0 -0.13)" style="fill: #21003c;fill-rule: evenodd"/>
	<g id="leg-obj" class="animated">
		<path id="leg" d="M178.23,209.76q-18.55-22.6-25.11-33.51c-7.49-12.45-13.61-23.53-15.54-27.77-4.61-10.09,10.61-14.82,14-10.11q7.81,10.69,33.4,67.27Z" transform="translate(0 -0.13)" style="fill: #dcc7b3;fill-rule: evenodd"/>
		<path id="foot" d="M175.39,207.12a2,2,0,0,0-2.73,1.14,13,13,0,0,0-.81,3.44,39.86,39.86,0,0,0,.57,4.94h35.39s1.38-4.55-1.59-4.91-4.94-.65-4.94-.65l-16.1-7.16a1,1,0,0,0-1.33.53l-.91,2.2a14.24,14.24,0,0,1-4.47,1.28A9.73,9.73,0,0,1,175.39,207.12Z" transform="translate(0 -0.13)" style="fill: #21003c;fill-rule: evenodd"/>
	</g>
	<path id="trouser_leg" class="animated" d="M152.88,205.38l-23-57.8C124.93,137,148.71,130.12,152.33,135c8.22,11.13,27.74,55,30.19,58.36Z" transform="translate(0 -0.13)" style="fill: #5d526d;fill-rule: evenodd"/>
	<path d="M121.57,150.46s-28.71-4.66-38.46-6.38c-18.52-3.26-23.92-13.2-20.73-34.89H96.51c6.78,2,56.62,24.14,56.62,24.14,6,3,4.87,11.68,3.78,14.56-.07.18-30.24,51.67-30.24,51.67L98.75,181.82l22.87-29.27S122.53,150.73,121.57,150.46Z" transform="translate(0 -0.13)" style="fill: #857c93;fill-rule: evenodd"/>
	<path d="M144,115.65,124,101l-4.43,10.9,19.82,8.2q8.42,9.86,9.41,8.22a2.5,2.5,0,0,0-.28-2.58c-.32-.62-.61-1.2-.39-1.73.49-1.21,4.25-1.08,7.82-.81s2.53-1.31,1.67-2.09A54.06,54.06,0,0,0,144,115.65Zm-105,25.83c1.83-3.72,8.1-40,8.1-40l13.11,0s-12.15,39.1-13.11,41.5c-1.26,3.1.87,7.62,2.32,10.68.23.48.43.91.61,1.31-2,.89-3-.19-4-1.33-1.15-1.29-2.37-2.66-5.23-1.33-1.11.51-2.15,1.12-3.18,1.71-3.53,2-6.78,3.93-11.19,1.21-.7-.43-1.47-2.05.39-3.31C31.52,148.83,38.18,143.3,39.08,141.48Z" transform="translate(0 -0.13)" style="fill: #f8c99e;fill-rule: evenodd"/>
	<path d="M84.44,46.63l5.43-.93C110,63,118.27,96.37,143,114L137,121.36C94.2,116.07,83.59,75.43,84.44,46.63Z" transform="translate(0 -0.13)" style="fill: #ea8913;fill-rule: evenodd"/>
	<path d="M60.79,114.64h48c2.19,0,1.78-3.16,1.46-4.76-3.66-18.4-18-38.23-18-64.42L78.47,43.29C67,61.67,63.05,84.29,60.79,114.64Z" transform="translate(0 -0.13)" style="fill: #dde3e9;fill-rule: evenodd"/>
	<path d="M62.63,61.14a7.27,7.27,0,0,1-6.23-3.82c-5.07-9.11-3.24-14.12,2.17-15.77,3-.91,5.77-.29,9.12.45a42.43,42.43,0,0,0,9.73,1.29,6.43,6.43,0,0,1,1,.08l4.6.26s18.65,63.06,10.29,84.15H55.39a118.64,118.64,0,0,1-6.27,13.14H38.83C37.72,105.2,51.28,77.71,62.63,61.14Z" transform="translate(0 -0.13)" style="fill: #ff9b21;fill-rule: evenodd"/>
	<path d="M55.39,127.78c2.83-6.78,5.73-14.7,8.53-22.87,1,9,2.77,18,5.65,22.87Z" transform="translate(0 -0.13)" style="fill-opacity: 0.10000000149011612;fill-rule: evenodd"/>
	<rect x="110.36" y="99.49" width="81.57" height="34.42" style="fill: none"/>
	<g>
		<path d="M128,134h48.5a2.41,2.41,0,0,0,2.25-1.58l10.06-29.78a2.34,2.34,0,0,0-2.24-3.06H139.91a4.88,4.88,0,0,0-4.66,3.33L125.76,131A2.28,2.28,0,0,0,128,134Z" transform="translate(0 -0.13)" style="fill: #5d526d"/>
		<path d="M131,134h48.51a2.37,2.37,0,0,0,2.24-1.58l10.06-29.78a2.32,2.32,0,0,0-2.24-3.06H143a4.89,4.89,0,0,0-4.67,3.33L128.79,131A2.3,2.3,0,0,0,131,134Z" transform="translate(0 -0.13)" style="fill: #1b1423"/>
		<path d="M165,115.86c0-1.12-1.3-1.61-2.45-1.61s-3,1.24-3,2.82S160.86,119,162,119A3.77,3.77,0,0,0,165,115.86Z" transform="translate(0 -0.13)" style="fill: #deebe9"/>
		<path d="M113.15,129.82h66.39V134H111.78a1.43,1.43,0,0,1-1.42-1.43A2.78,2.78,0,0,1,113.15,129.82Z" transform="translate(0 -0.13)" style="fill: #1b1423"/>
	</g>
</svg>