<?xml version="1.0" standalone="no"?>
<svg xmlns:xlink="http://www.w3.org/1999/xlink" id="wave" style="transform:rotate(0deg); transition: 0.3s" viewBox="0 0 1440 490" version="1.1" xmlns="http://www.w3.org/2000/svg"><defs><linearGradient id="sw-gradient-0" x1="0" x2="0" y1="1" y2="0"><stop stop-color="rgba(243, 106, 62, 1)" offset="0%"/><stop stop-color="rgba(255, 179, 11, 1)" offset="100%"/></linearGradient></defs><path style="transform:translate(0, 0px); opacity:1" fill="url(#sw-gradient-0)" d="M0,49L120,89.8C240,131,480,212,720,204.2C960,196,1200,98,1440,122.5C1680,147,1920,294,2160,359.3C2400,425,2640,408,2880,408.3C3120,408,3360,425,3600,375.7C3840,327,4080,212,4320,155.2C4560,98,4800,98,5040,106.2C5280,114,5520,131,5760,171.5C6000,212,6240,278,6480,269.5C6720,261,6960,180,7200,130.7C7440,82,7680,65,7920,98C8160,131,8400,212,8640,220.5C8880,229,9120,163,9360,130.7C9600,98,9840,98,10080,147C10320,196,10560,294,10800,277.7C11040,261,11280,131,11520,89.8C11760,49,12000,98,12240,171.5C12480,245,12720,343,12960,326.7C13200,310,13440,180,13680,106.2C13920,33,14160,16,14400,40.8C14640,65,14880,131,15120,171.5C15360,212,15600,229,15840,236.8C16080,245,16320,245,16560,204.2C16800,163,17040,82,17160,40.8L17280,0L17280,490L17160,490C17040,490,16800,490,16560,490C16320,490,16080,490,15840,490C15600,490,15360,490,15120,490C14880,490,14640,490,14400,490C14160,490,13920,490,13680,490C13440,490,13200,490,12960,490C12720,490,12480,490,12240,490C12000,490,11760,490,11520,490C11280,490,11040,490,10800,490C10560,490,10320,490,10080,490C9840,490,9600,490,9360,490C9120,490,8880,490,8640,490C8400,490,8160,490,7920,490C7680,490,7440,490,7200,490C6960,490,6720,490,6480,490C6240,490,6000,490,5760,490C5520,490,5280,490,5040,490C4800,490,4560,490,4320,490C4080,490,3840,490,3600,490C3360,490,3120,490,2880,490C2640,490,2400,490,2160,490C1920,490,1680,490,1440,490C1200,490,960,490,720,490C480,490,240,490,120,490L0,490Z"/></svg>