<?xml version="1.0" standalone="no"?><svg xmlns="http://www.w3.org/2000/svg" viewBox="0 0 1440 320"><path fill="#677878" fill-opacity="1" d="M0,96L40,106.7C80,117,160,139,240,170.7C320,203,400,245,480,250.7C560,256,640,224,720,229.3C800,235,880,277,960,250.7C1040,224,1120,128,1200,96C1280,64,1360,96,1400,112L1440,128L1440,320L1400,320C1360,320,1280,320,1200,320C1120,320,1040,320,960,320C880,320,800,320,720,320C640,320,560,320,480,320C400,320,320,320,240,320C160,320,80,320,40,320L0,320Z"></path></svg>